<svg xmlns:dc="http://purl.org/dc/elements/1.1/" xmlns:cc="http://creativecommons.org/ns#" xmlns:rdf="http://www.w3.org/1999/02/22-rdf-syntax-ns#" xmlns:svg="http://www.w3.org/2000/svg" xmlns="http://www.w3.org/2000/svg" xmlns:sodipodi="http://sodipodi.sourceforge.net/DTD/sodipodi-0.dtd" xmlns:inkscape="http://www.inkscape.org/namespaces/inkscape" viewBox="0 0 12.7 15.875" version="1.1" x="0px" y="0px"><g transform="translate(0,-284.29999)"><path style="color:#000000;font-style:normal;font-variant:normal;font-weight:normal;font-stretch:normal;font-size:medium;line-height:normal;font-family:sans-serif;font-variant-ligatures:normal;font-variant-position:normal;font-variant-caps:normal;font-variant-numeric:normal;font-variant-alternates:normal;font-feature-settings:normal;text-indent:0;text-align:start;text-decoration:none;text-decoration-line:none;text-decoration-style:solid;text-decoration-color:#000000;letter-spacing:normal;word-spacing:normal;text-transform:none;writing-mode:lr-tb;direction:ltr;text-orientation:mixed;dominant-baseline:auto;baseline-shift:baseline;text-anchor:start;white-space:normal;shape-padding:0;clip-rule:nonzero;display:inline;overflow:visible;visibility:visible;opacity:1;isolation:auto;mix-blend-mode:normal;color-interpolation:sRGB;color-interpolation-filters:linearRGB;solid-color:#000000;solid-opacity:1;vector-effect:none;fill:#000000;fill-opacity:1;fill-rule:evenodd;stroke:none;stroke-width:3.99999976;stroke-linecap:round;stroke-linejoin:round;stroke-miterlimit:4;stroke-dasharray:none;stroke-dashoffset:8;stroke-opacity:1;paint-order:stroke fill markers;color-rendering:auto;image-rendering:auto;shape-rendering:auto;text-rendering:auto;enable-background:accumulate" d="M 23.998047 2.0039062 C 11.871472 2.0039062 2 11.875377 2 24.001953 C 2 36.12853 11.871472 46 23.998047 46 C 36.124622 46 45.996094 36.12853 45.996094 24.001953 C 45.996094 11.875377 36.124622 2.0039062 23.998047 2.0039062 z M 23.998047 5.9980469 C 33.962861 5.9980469 42.003906 14.037153 42.003906 24.001953 C 42.003906 33.966753 33.962861 41.998047 23.998047 41.998047 C 14.033232 41.998047 6.0019531 33.966753 6.0019531 24.001953 C 6.0019531 14.037153 14.033232 5.9980469 23.998047 5.9980469 z M 33.964844 15.976562 A 2.0001999 2.0001999 0 0 0 32.583984 16.582031 L 21.998047 27.167969 L 17.414062 22.583984 A 2.0001999 2.0001999 0 1 0 14.585938 25.412109 L 20.587891 31.412109 A 2.0001999 2.0001999 0 0 0 23.416016 31.412109 L 35.410156 19.417969 A 2.0001999 2.0001999 0 0 0 33.964844 15.976562 z " transform="matrix(0.26458333,0,0,0.26458333,0,284.29999)"/></g><text x="0" y="27.7" fill="#000000" font-size="5px" font-weight="bold" font-family="'Helvetica Neue', Helvetica, Arial-Unicode, Arial, Sans-serif">Created by Gajah Mada Studio</text><text x="0" y="32.7" fill="#000000" font-size="5px" font-weight="bold" font-family="'Helvetica Neue', Helvetica, Arial-Unicode, Arial, Sans-serif">from the Noun Project</text></svg>