<svg xmlns="http://www.w3.org/2000/svg" data-name="Layer 1" viewBox="0 0 100 125" x="0px" y="0px"><title>Ui_Thick_Icon_Exclamation_1</title><path d="M50,57a5,5,0,0,1-5-5V32.7a5,5,0,1,1,10,0V52A5,5,0,0,1,50,57Zm42.38-7A42.38,42.38,0,1,0,50,92.38,42.42,42.42,0,0,0,92.38,50Zm-10,0A32.38,32.38,0,1,1,50,17.63,32.42,32.42,0,0,1,82.38,50ZM55,64.59v-.11a5,5,0,1,0-10,0v.11a5,5,0,0,0,10,0Z"/><text x="0" y="115" fill="#000000" font-size="5px" font-weight="bold" font-family="'Helvetica Neue', Helvetica, Arial-Unicode, Arial, Sans-serif">Created by Mani Singh</text><text x="0" y="120" fill="#000000" font-size="5px" font-weight="bold" font-family="'Helvetica Neue', Helvetica, Arial-Unicode, Arial, Sans-serif">from the Noun Project</text></svg>