<svg xmlns="http://www.w3.org/2000/svg" xmlns:xlink="http://www.w3.org/1999/xlink" version="1.1" x="0px" y="0px" viewBox="0 0 32 40" style="enable-background:new 0 0 32 32;" xml:space="preserve"><g><g><path d="M16,29C8.831543,29,3,23.1679688,3,16S8.831543,3,16,3s13,5.8320313,13,13S23.168457,29,16,29z M16,5    C9.9345703,5,5,9.9345703,5,16s4.9345703,11,11,11s11-4.9345703,11-11S22.0654297,5,16,5z"/></g><g><g><path d="M13.25,19.75c-0.2558594,0-0.5117188-0.0976563-0.7070313-0.2929688c-0.390625-0.390625-0.390625-1.0234375,0-1.4140625     l5.5-5.5c0.390625-0.390625,1.0234375-0.390625,1.4140625,0s0.390625,1.0234375,0,1.4140625l-5.5,5.5     C13.7617188,19.6523438,13.5058594,19.75,13.25,19.75z"/></g><g><path d="M18.75,19.75c-0.2558594,0-0.5117188-0.0976563-0.7070313-0.2929688l-5.5-5.5     c-0.390625-0.390625-0.390625-1.0234375,0-1.4140625s1.0234375-0.390625,1.4140625,0l5.5,5.5     c0.390625,0.390625,0.390625,1.0234375,0,1.4140625C19.2617188,19.6523438,19.0058594,19.75,18.75,19.75z"/></g></g></g><text x="0" y="47" fill="#000000" font-size="5px" font-weight="bold" font-family="'Helvetica Neue', Helvetica, Arial-Unicode, Arial, Sans-serif">Created by Royyan Wijaya</text><text x="0" y="52" fill="#000000" font-size="5px" font-weight="bold" font-family="'Helvetica Neue', Helvetica, Arial-Unicode, Arial, Sans-serif">from the Noun Project</text></svg>